# This file uses centimeters as units for non-parametric coordinates.

v -3.049484 0.000000 -6.358626
v -4.973755 0.000000 -6.358626
v -4.973755 0.000000 7.466954
v -3.292267 0.000000 7.466954
v -3.292267 0.000000 -3.206473
v 3.676666 0.000000 7.466954
v 5.591583 0.000000 7.466954
v 5.591583 0.000000 -6.358626
v 3.910080 0.000000 -6.358626
v 3.910080 0.000000 4.317863
vt 0.742864 0.822270
vt 0.686046 0.822270
vt 0.686046 0.414043
vt 0.735696 0.414043
vt 0.735696 0.729196
vt 0.941467 0.414043
vt 0.998008 0.414043
vt 0.998008 0.822270
vt 0.948359 0.822270
vt 0.948359 0.507026
vn 0.000000 1.000000 0.000000
vn 0.000000 1.000000 0.000000
vn 0.000000 1.000000 0.000000
vn 0.000000 1.000000 0.000000
vn 0.000000 1.000000 0.000000
vn 0.000000 1.000000 0.000000
vn 0.000000 1.000000 0.000000
vn 0.000000 1.000000 0.000000
vn 0.000000 1.000000 0.000000
vn 0.000000 1.000000 0.000000
s 1
f 2/2/1 3/3/2 1/1/3
f 4/4/4 5/5/5 3/3/2
f 3/3/2 5/5/5 1/1/3
f 1/1/3 5/5/5 10/10/6
f 5/5/5 6/6/7 10/10/6
f 6/6/7 7/7/8 10/10/6
f 7/7/8 8/8/9 10/10/6
f 8/8/9 9/9/10 10/10/6
